<!-- Generator: Adobe Illustrator 23.0.1, SVG Export Plug-In  -->
<svg version="1.1" xmlns="http://www.w3.org/2000/svg" xmlns:xlink="http://www.w3.org/1999/xlink" x="0px" y="0px" width="325.5px"
	 height="361.7px" viewBox="0 0 325.5 361.7" style="enable-background:new 0 0 325.5 361.7;" xml:space="preserve">
<style type="text/css">
	.st0{fill:#00558e;}
</style>
<defs>
</defs>
<g>
	<path class="st0" d="M288,36.2h-16.7v-18c0-5-2-9.5-5.3-12.8C262.7,2,258.1,0,253.1,0c-10,0-18.1,8.1-18.1,18.1v18H90.5v-18
		c0-5-2-9.5-5.3-12.8C81.9,2,77.4,0,72.4,0c-10,0-18.1,8.1-18.1,18.1v18H37.5C16.8,36.2,0,53,0,73.7v250.5
		c0,20.7,16.8,37.5,37.5,37.5H288c20.7,0,37.5-16.8,37.5-37.5V73.7C325.5,53,308.7,36.2,288,36.2z M289.7,306.8
		c0,10.6-8.6,19.2-19.2,19.2H55c-10.6,0-19.1-8.6-19.1-19.2V126.3h253.8V306.8z"/>
</g>
</svg>
